# xmcd
#
# Track frame offsets:
#   150
#   13662
#   28217
#   42052
#   60351
#   73402
#   86881
#   101615
#   115709
#   134204
#   160965
#   182891
#   199477
#   217466
#   231002
#   245151
#   264094
#   281412
#   301891
#   323373
#
# Disc length: 4595 seconds
#
# Revision: 0
# Processed by: cddbd v1.5.2PL0 Copyright (c) Steve Scherf et al.
# Submitted via: ProFiler_MP3 1.4.100
#
DISCID=2c11f114
DTITLE=Santana - Romantic Dinner
DYEAR=2008
DGENRE=Oldies
TTITLE0=San Francisco
TTITLE1=Dream a little Dream
TTITLE2=The Sounds of Silence
TTITLE3=The Air that I Breathe
TTITLE4=God Only Knows
TTITLE5=Annies Song
TTITLE6=If you coukd read my mind
TTITLE7=Silence is golden
TTITLE8=When I need you
TTITLE9=Harbor Lights
TTITLE10=All by myself
TTITLE11=Baby, I love your way
TTITLE12=Love me for a reason
TTITLE13=Love is all around
TTITLE14=Albatross
TTITLE15=Lovely Day
TTITLE16=Lost in Love
TTITLE17=How about us
TTITLE18=Me and Mrs.Jones
TTITLE19=Samba Pa Ti
EXTD=
EXTT0=
EXTT1=
EXTT2=
EXTT3=
EXTT4=
EXTT5=
EXTT6=
EXTT7=
EXTT8=
EXTT9=
EXTT10=
EXTT11=
EXTT12=
EXTT13=
EXTT14=
EXTT15=
EXTT16=
EXTT17=
EXTT18=
EXTT19=
PLAYORDER=
